<svg xmlns="http://www.w3.org/2000/svg" width="40" height="40" viewBox="0 0 528 528">
    <g>
        <path d="M 83.01,312.59 L 83.45,312.96 L 83.97,313.09 L 84.67,313.17 L 85.18,313.21 L 86.31,313.29 L 87.03,313.32 L 88.56,313.39 L 89.47,313.43 L 91.38,313.49 L 92.46,313.52 L 94.71,313.58 L 95.96,313.61 L 98.52,313.66 L 99.91,313.69 L 102.76,313.74 L 104.27,313.76 L 110.59,313.84 L 114.06,313.87 L 121.17,313.93 L 124.94,313.95 L 132.60,313.99 L 136.55,314.00 L 144.52,314.01 L 148.53,314.01 L 156.56,314.00 L 160.51,313.99 L 168.35,313.96 L 172.12,313.93 L 179.54,313.88 L 183.00,313.85 L 189.75,313.77 L 192.78,313.73 L 195.76,313.68 L 197.15,313.65 L 199.86,313.60 L 201.10,313.57 L 203.51,313.51 L 204.60,313.48 L 206.68,313.42 L 207.59,313.38 L 209.31,313.32 L 210.03,313.28 L 211.37,313.20 L 211.88,313.16 L 212.80,313.08 L 213.09,313.04 L 213.55,312.96 L 213.61,312.91 L 214.68,312.41 L 215.25,312.60 L 215.47,312.95 L 216.01,313.08 L 216.83,313.16 L 217.48,313.20 L 218.92,313.28 L 219.88,313.32 L 221.95,313.39 L 223.23,313.42 L 225.94,313.48 L 227.54,313.51 L 230.90,313.57 L 232.82,313.60 L 236.84,313.65 L 239.09,313.68 L 243.77,313.73 L 246.36,313.75 L 251.71,313.79 L 254.64,313.81 L 260.66,313.84 L 263.94,313.86 L 270.65,313.89 L 274.27,313.90 L 281.68,313.93 L 285.65,313.94 L 293.77,313.96 L 298.10,313.97 L 306.93,313.98 L 311.61,313.98 L 321.16,313.99 L 326.21,314.00 L 336.49,314.00 L 467.70,314.00 L 471.01,316.25 L 473.96,318.67 L 475.83,320.55 L 476.41,321.32 L 477.09,322.41 L 477.46,323.36 L 477.61,324.12 L 477.76,324.94 L 477.82,325.46 L 477.94,326.56 L 478.00,327.25 L 478.10,328.71 L 478.14,329.60 L 478.23,331.48 L 478.27,332.60 L 478.34,334.97 L 478.37,336.37 L 478.43,339.29 L 478.46,340.99 L 478.51,344.53 L 478.53,346.56 L 478.57,350.80 L 478.59,353.20 L 478.63,358.19 L 478.65,360.99 L 478.68,366.80 L 478.70,370.04 L 478.73,376.75 L 478.75,380.45 L 478.78,388.11 L 478.80,392.32 L 478.85,406.11 L 478.87,414.95 L 478.87,419.13 L 478.87,427.33 L 478.86,431.11 L 478.85,438.45 L 478.83,441.73 L 478.82,444.95 L 478.81,446.45 L 478.79,449.37 L 478.78,450.71 L 478.75,453.32 L 478.74,454.49 L 478.71,456.75 L 478.70,457.75 L 478.67,459.64 L 478.65,460.44 L 478.62,461.94 L 478.60,462.54 L 478.56,463.62 L 478.55,464.00 L 478.51,464.64 L 478.48,464.79 L 477.27,468.64 L 475.87,471.18 L 474.95,472.34 L 472.97,474.58 L 471.84,475.49 L 469.52,477.14 L 468.30,477.65 L 467.84,477.79 L 467.39,477.85 L 466.35,477.97 L 465.59,478.03 L 463.87,478.14 L 462.73,478.19 L 460.25,478.29 L 458.68,478.33 L 455.33,478.42 L 453.30,478.46 L 448.98,478.53 L 446.43,478.57 L 443.81,478.60 L 442.39,478.62 L 439.49,478.65 L 437.93,478.66 L 434.74,478.69 L 433.02,478.71 L 429.53,478.73 L 427.66,478.74 L 423.84,478.77 L 421.81,478.78 L 417.67,478.80 L 415.47,478.81 L 410.98,478.83 L 408.61,478.84 L 403.77,478.86 L 401.21,478.87 L 396.01,478.88 L 393.26,478.89 L 387.68,478.91 L 384.75,478.91 L 378.77,478.92 L 375.64,478.93 L 369.27,478.94 L 365.93,478.95 L 359.14,478.96 L 355.59,478.96 L 348.38,478.97 L 344.61,478.97 L 336.96,478.98 L 332.96,478.98 L 324.86,478.99 L 320.64,478.99 L 312.08,478.99 L 307.62,478.99 L 298.58,479.00 L 293.88,479.00 L 284.36,479.00 L 279.41,479.00 L 269.39,479.00 L 63.31,479.00 L 58.91,476.67 L 55.08,473.92 L 52.96,471.65 L 52.27,470.42 L 50.03,466.50 L 50.02,394.16 L 50.00,321.82 L 52.25,319.89 L 56.17,316.98 L 58.75,315.62 L 60.19,315.18 L 63.20,314.44 L 65.02,314.26 L 66.92,314.10 L 67.98,314.06 L 70.17,314.00 L 71.40,314.00 L 75.27,313.92 L 77.50,313.80 L 78.40,313.71 L 80.03,313.50 L 80.57,313.37 L 81.44,313.10 L 81.53,312.95 L 82.33,312.41 M 83.00,347.00 L 83.00,395.83 L 83.01,405.66 L 83.04,411.91 L 83.05,414.85 L 83.09,420.58 L 83.12,423.20 L 83.17,428.28 L 83.20,430.52 L 83.26,434.80 L 83.30,436.60 L 83.37,439.95 L 83.41,441.23 L 83.45,442.44 L 83.48,442.94 L 83.52,443.86 L 83.54,444.21 L 83.58,444.83 L 83.61,445.02 L 83.65,445.32 L 83.68,445.34 L 83.81,445.39 L 84.00,445.41 L 84.46,445.45 L 84.80,445.47 L 85.57,445.51 L 86.07,445.53 L 87.13,445.57 L 87.77,445.58 L 90.59,445.65 L 92.38,445.68 L 96.19,445.73 L 98.42,445.74 L 103.09,445.78 L 105.70,445.79 L 111.09,445.81 L 114.01,445.81 L 119.99,445.81 L 123.15,445.80 L 129.59,445.78 L 132.93,445.76 L 181.50,445.50 L 182.02,347.00 M 215.00,347.00 L 215.00,395.83 L 215.01,405.66 L 215.04,411.91 L 215.05,414.85 L 215.09,420.58 L 215.12,423.20 L 215.17,428.28 L 215.20,430.52 L 215.26,434.80 L 215.30,436.60 L 215.37,439.95 L 215.41,441.23 L 215.45,442.44 L 215.48,442.94 L 215.52,443.86 L 215.54,444.21 L 215.58,444.83 L 215.61,445.02 L 215.65,445.32 L 215.68,445.34 L 215.81,445.39 L 216.00,445.41 L 216.46,445.45 L 216.80,445.47 L 217.57,445.51 L 218.07,445.53 L 219.13,445.57 L 219.77,445.58 L 222.59,445.65 L 224.38,445.68 L 228.19,445.73 L 230.42,445.74 L 235.09,445.78 L 237.70,445.79 L 243.09,445.81 L 246.01,445.81 L 251.99,445.81 L 255.15,445.80 L 261.59,445.78 L 264.93,445.76 L 313.50,445.50 L 314.02,347.00 M 347.00,347.00 L 347.00,395.83 L 347.01,405.66 L 347.04,411.91 L 347.05,414.85 L 347.09,420.58 L 347.12,423.20 L 347.17,428.28 L 347.20,430.52 L 347.26,434.80 L 347.30,436.60 L 347.37,439.95 L 347.41,441.23 L 347.45,442.44 L 347.48,442.94 L 347.52,443.86 L 347.54,444.21 L 347.58,444.83 L 347.61,445.02 L 347.65,445.32 L 347.68,445.34 L 347.81,445.39 L 348.00,445.41 L 348.46,445.45 L 348.80,445.47 L 349.57,445.51 L 350.07,445.53 L 351.13,445.57 L 351.77,445.58 L 354.59,445.65 L 356.38,445.68 L 360.19,445.73 L 362.42,445.74 L 367.09,445.78 L 369.70,445.79 L 375.09,445.81 L 378.01,445.81 L 383.99,445.81 L 387.15,445.80 L 393.59,445.78 L 396.93,445.76 L 445.50,445.50 L 446.02,347.00 Z"
              fill="rgb(136,136,135)"/>
        <path d="M 313.50,445.50 L 264.93,445.76 L 261.59,445.78 L 255.15,445.80 L 251.99,445.81 L 246.01,445.81 L 243.09,445.81 L 237.70,445.79 L 235.09,445.78 L 230.42,445.74 L 228.19,445.73 L 224.38,445.68 L 222.59,445.65 L 219.77,445.58 L 219.13,445.57 L 218.07,445.53 L 217.57,445.51 L 216.80,445.47 L 216.46,445.45 L 216.00,445.41 L 215.81,445.39 L 215.68,445.34 L 215.65,445.32 L 215.61,445.02 L 215.58,444.83 L 215.54,444.21 L 215.52,443.86 L 215.48,442.94 L 215.45,442.44 L 215.41,441.23 L 215.37,439.95 L 215.30,436.60 L 215.26,434.80 L 215.20,430.52 L 215.17,428.28 L 215.12,423.20 L 215.09,420.58 L 215.05,414.85 L 215.04,411.91 L 215.01,405.66 L 215.00,395.83 L 215.00,347.00 L 314.02,347.00 Z"
              fill="rgb(205,205,205)"/>
        <path d="M 56.17,316.98 L 52.25,319.89 L 50.02,321.81 L 50.02,319.50 L 56.11,316.75 L 58.30,315.85 M 67.98,314.06 L 66.92,314.10 L 65.02,314.26 L 63.20,314.44 L 60.19,315.18 L 59.28,315.45 L 59.61,315.32 L 61.68,314.68 L 62.78,314.49 L 65.07,314.17 L 66.48,314.10 L 67.95,314.04 L 68.79,314.02 L 69.88,314.01 M 81.30,313.15 L 81.44,313.10 L 81.53,312.95 L 81.44,313.10 Z"
              fill="rgb(245,171,90)"/>
        <path d="M 477.47,323.41 L 477.48,323.44 L 477.47,323.41 M 471.27,316.31 L 471.62,316.56 L 474.17,318.83 L 475.12,319.84 L 473.96,318.67 L 471.01,316.25 L 470.58,315.96 M 470.50,52.27 L 474.06,55.07 L 476.01,57.50 L 476.75,58.97 L 479.00,63.42 L 478.96,131.46 L 478.95,137.99 L 478.95,142.14 L 478.95,144.11 L 478.94,151.76 L 478.93,155.21 L 478.91,161.87 L 478.90,164.86 L 478.87,170.62 L 478.85,173.19 L 478.81,178.11 L 478.78,180.29 L 478.71,184.45 L 478.67,186.27 L 478.58,189.75 L 478.52,191.26 L 478.40,194.13 L 478.33,195.36 L 478.17,197.68 L 478.08,198.67 L 477.89,200.53 L 477.78,201.31 L 477.54,202.78 L 477.40,203.39 L 477.12,204.54 L 476.96,205.02 L 476.27,206.70 L 475.84,207.35 L 474.91,208.57 L 474.35,209.21 L 473.31,210.16 L 472.40,210.86 L 471.87,211.21 L 469.60,212.61 L 468.50,213.12 L 466.75,213.70 L 465.93,213.87 L 465.39,213.94 L 464.24,214.08 L 463.50,214.15 L 461.90,214.27 L 460.90,214.32 L 458.75,214.43 L 457.44,214.47 L 454.64,214.56 L 452.96,214.60 L 449.39,214.67 L 447.29,214.70 L 442.85,214.75 L 440.27,214.78 L 437.62,214.80 L 436.20,214.81 L 433.29,214.83 L 431.74,214.84 L 428.55,214.86 L 426.85,214.87 L 423.38,214.88 L 421.53,214.89 L 417.76,214.90 L 415.75,214.91 L 411.66,214.92 L 409.49,214.92 L 405.07,214.93 L 402.73,214.94 L 397.97,214.95 L 395.46,214.95 L 390.34,214.95 L 387.64,214.96 L 382.15,214.96 L 379.26,214.96 L 373.39,214.97 L 370.30,214.97 L 364.03,214.97 L 360.74,214.97 L 354.06,214.98 L 350.56,214.98 L 343.46,214.98 L 339.74,214.98 L 214.98,215.00 L 215.24,264.25 L 215.50,312.96 L 215.47,312.95 L 215.25,312.60 L 214.68,312.41 L 213.61,312.91 L 213.55,312.96 L 213.09,313.04 L 212.80,313.08 L 211.88,313.16 L 211.37,313.20 L 210.03,313.28 L 209.31,313.32 L 207.59,313.38 L 206.68,313.42 L 204.60,313.48 L 203.51,313.51 L 201.10,313.57 L 199.86,313.60 L 197.15,313.65 L 195.76,313.68 L 192.78,313.73 L 189.75,313.77 L 183.00,313.85 L 179.54,313.88 L 172.12,313.93 L 168.35,313.96 L 160.51,313.99 L 156.56,314.00 L 148.53,314.01 L 144.52,314.01 L 136.55,314.00 L 132.60,313.99 L 124.94,313.95 L 121.17,313.93 L 114.06,313.87 L 110.59,313.84 L 106.86,313.79 L 111.09,313.81 L 114.01,313.81 L 119.99,313.81 L 123.15,313.80 L 129.59,313.78 L 132.93,313.76 L 181.50,313.50 L 181.50,215.50 L 132.25,215.24 L 83.00,214.98 L 83.00,263.82 L 83.01,273.65 L 83.04,279.91 L 83.05,282.84 L 83.09,288.58 L 83.12,291.20 L 83.17,296.27 L 83.20,298.52 L 83.26,302.80 L 83.30,304.59 L 83.37,307.95 L 83.41,309.23 L 83.45,310.44 L 83.48,310.94 L 83.52,311.86 L 83.54,312.21 L 83.58,312.83 L 83.60,313.00 L 83.45,312.96 L 83.01,312.59 L 82.33,312.41 L 81.53,312.95 L 81.44,313.10 L 80.57,313.37 L 80.05,313.50 L 78.43,313.70 L 77.55,313.80 L 75.34,313.92 L 71.55,314.00 L 70.54,314.00 L 68.79,314.02 L 67.95,314.04 L 66.48,314.10 L 65.07,314.17 L 62.78,314.49 L 61.68,314.68 L 59.61,315.32 L 56.11,316.75 L 50.03,319.49 L 50.03,62.50 L 52.29,58.52 L 53.48,56.78 L 54.48,55.60 L 55.04,55.04 L 56.19,53.95 L 56.78,53.48 L 57.96,52.60 L 58.52,52.29 L 62.50,50.03 L 466.50,50.03 M 336.49,314.00 L 326.21,314.00 L 321.16,313.99 L 311.61,313.98 L 306.93,313.98 L 298.10,313.97 L 293.77,313.96 L 285.65,313.94 L 281.68,313.93 L 274.27,313.90 L 270.65,313.89 L 263.94,313.86 L 260.66,313.84 L 254.64,313.81 L 251.71,313.79 L 246.36,313.75 L 243.77,313.73 L 239.09,313.68 L 236.84,313.65 L 232.82,313.60 L 230.90,313.57 L 229.96,313.56 L 342.18,314.00 M 83.00,83.00 L 83.00,182.02 L 181.50,181.50 L 182.02,83.00 M 215.00,131.82 L 215.01,141.65 L 215.04,147.91 L 215.05,150.84 L 215.09,156.57 L 215.11,159.20 L 215.17,164.27 L 215.20,166.51 L 215.26,170.79 L 215.29,172.59 L 215.37,175.94 L 215.41,177.22 L 215.45,178.43 L 215.47,178.93 L 215.51,179.85 L 215.53,180.20 L 215.58,180.82 L 215.60,181.01 L 215.64,181.31 L 215.67,181.33 L 215.80,181.38 L 215.98,181.40 L 216.43,181.45 L 216.77,181.47 L 217.53,181.51 L 218.02,181.53 L 219.06,181.57 L 219.69,181.59 L 222.46,181.67 L 224.22,181.71 L 227.96,181.77 L 230.15,181.80 L 234.74,181.86 L 237.30,181.89 L 242.60,181.93 L 245.47,181.95 L 251.34,181.98 L 254.45,181.99 L 260.76,182.00 L 264.04,182.00 L 271.02,182.00 L 275.33,181.99 L 277.33,181.99 L 281.20,181.98 L 282.98,181.97 L 286.45,181.95 L 288.03,181.94 L 291.11,181.92 L 292.50,181.91 L 295.21,181.88 L 296.43,181.86 L 298.78,181.83 L 299.84,181.81 L 301.87,181.76 L 302.77,181.74 L 304.50,181.68 L 305.26,181.65 L 306.70,181.59 L 307.33,181.56 L 309.58,181.41 L 310.36,181.32 L 311.72,181.13 L 312.13,181.02 L 312.77,180.78 L 312.89,180.64 L 313.17,179.65 L 313.33,178.36 L 313.39,177.38 L 313.52,175.18 L 313.57,173.72 L 313.67,170.56 L 313.70,168.59 L 313.73,166.56 L 313.75,165.44 L 313.77,163.14 L 313.78,161.88 L 313.80,159.30 L 313.80,157.91 L 313.81,155.05 L 313.82,153.51 L 313.82,150.36 L 313.82,148.67 L 313.81,145.22 L 313.81,143.37 L 313.80,139.62 L 313.79,137.62 L 313.77,133.54 L 313.76,131.39 L 313.50,83.50 L 264.25,83.24 L 215.00,82.98 M 347.00,83.00 L 347.00,131.83 L 347.01,141.66 L 347.04,147.91 L 347.05,150.85 L 347.09,156.58 L 347.12,159.20 L 347.17,164.28 L 347.20,166.52 L 347.26,170.80 L 347.30,172.60 L 347.37,175.95 L 347.41,177.23 L 347.45,178.44 L 347.48,178.94 L 347.52,179.86 L 347.54,180.21 L 347.58,180.83 L 347.61,181.02 L 347.65,181.32 L 347.68,181.34 L 347.81,181.39 L 348.00,181.41 L 348.46,181.45 L 348.80,181.47 L 349.57,181.51 L 350.07,181.53 L 351.13,181.57 L 351.77,181.58 L 354.59,181.65 L 356.38,181.68 L 360.19,181.73 L 362.42,181.74 L 367.09,181.78 L 369.70,181.79 L 375.09,181.81 L 378.01,181.81 L 383.99,181.81 L 387.15,181.80 L 393.59,181.78 L 396.93,181.76 L 445.50,181.50 L 446.02,83.00 M 478.78,388.13 L 478.80,392.32 L 478.78,388.13 Z"
              fill="rgb(243,144,32)"/>
        <path d="M 154.72,216.06 L 156.38,216.07 L 159.56,216.10 L 160.97,216.12 L 163.67,216.18 L 164.85,216.21 L 167.11,216.30 L 168.09,216.35 L 169.94,216.47 L 170.74,216.54 L 172.24,216.70 L 172.87,216.79 L 174.05,216.99 L 174.54,217.11 L 176.23,217.62 L 176.76,217.96 L 177.64,218.69 L 177.90,219.14 L 178.31,220.11 L 178.46,220.69 L 178.52,221.18 L 178.56,221.72 L 178.58,222.10 L 178.66,223.88 L 178.70,225.15 L 178.77,227.94 L 178.80,229.67 L 178.85,233.33 L 178.88,235.44 L 178.92,239.85 L 178.94,242.29 L 178.97,247.32 L 178.98,250.02 L 179.00,255.54 L 179.00,258.44 L 179.00,264.32 L 179.00,267.36 L 178.98,276.25 L 178.97,281.93 L 178.96,284.60 L 178.96,289.82 L 178.95,292.22 L 178.95,296.86 L 178.95,298.92 L 178.94,302.86 L 178.94,304.52 L 178.94,307.63 L 178.94,308.83 L 178.94,309.97 L 178.94,310.44 L 178.94,311.33 L 178.94,311.66 L 178.95,312.27 L 178.95,312.47 L 178.95,312.79 L 178.95,312.83 L 179.12,313.49 L 179.15,313.51 L 132.93,313.76 L 129.59,313.78 L 123.15,313.80 L 119.99,313.81 L 114.01,313.81 L 111.09,313.81 L 105.70,313.79 L 103.09,313.78 L 98.42,313.74 L 96.19,313.73 L 92.38,313.68 L 90.59,313.65 L 87.77,313.58 L 87.13,313.57 L 86.07,313.53 L 85.57,313.51 L 84.80,313.47 L 84.46,313.45 L 84.00,313.41 L 83.81,313.39 L 83.68,313.34 L 83.65,313.32 L 83.61,313.02 L 83.58,312.83 L 83.57,312.60 L 83.59,312.74 L 83.62,312.72 L 83.68,312.41 L 83.72,311.98 L 83.74,311.64 L 83.78,310.91 L 83.80,310.44 L 83.85,309.42 L 83.87,308.81 L 83.94,306.11 L 83.98,304.40 L 84.06,300.76 L 84.09,298.62 L 84.16,294.16 L 84.19,291.66 L 84.24,286.50 L 84.26,283.71 L 84.31,277.98 L 84.33,274.96 L 84.36,268.80 L 84.37,265.60 L 84.39,259.04 L 84.41,254.96 L 84.42,253.06 L 84.44,249.37 L 84.45,247.67 L 84.48,244.34 L 84.49,242.81 L 84.52,239.84 L 84.54,238.48 L 84.58,235.84 L 84.60,234.64 L 84.64,232.32 L 84.66,231.27 L 84.71,229.24 L 84.74,228.34 L 84.79,226.60 L 84.82,225.83 L 84.89,224.35 L 84.92,223.71 L 85.07,221.38 L 85.16,220.55 L 85.34,219.09 L 85.45,218.65 L 85.67,217.93 L 85.80,217.80 L 86.61,217.45 L 87.62,217.24 L 88.40,217.15 L 90.16,216.98 L 91.35,216.91 L 93.97,216.76 L 95.64,216.70 L 97.37,216.64 L 98.33,216.61 L 100.33,216.56 L 101.43,216.53 L 103.71,216.48 L 104.95,216.46 L 107.52,216.41 L 108.92,216.39 L 111.79,216.35 L 113.35,216.33 L 116.54,216.29 L 118.27,216.27 L 121.80,216.24 L 123.69,216.22 L 127.58,216.19 L 129.66,216.17 L 137.72,216.11 L 142.60,216.08 L 144.81,216.07 L 149.09,216.06 L 151.01,216.06 M 181.50,313.50 L 180.38,313.51 L 180.58,313.11 L 180.78,312.11 L 180.86,311.28 L 181.01,309.40 L 181.07,308.08 L 181.14,306.70 L 181.16,305.90 L 181.22,304.24 L 181.24,303.30 L 181.29,301.35 L 181.31,300.26 L 181.35,298.00 L 181.36,296.75 L 181.39,294.16 L 181.41,292.74 L 181.43,289.81 L 181.44,288.21 L 181.46,284.93 L 181.47,283.14 L 181.48,279.48 L 181.49,277.50 L 181.49,273.45 L 181.50,271.27 L 181.50,266.81 M 420.46,84.90 L 425.36,84.91 L 427.57,84.93 L 431.81,84.97 L 433.62,84.99 L 437.02,85.05 L 438.35,85.09 L 439.62,85.13 L 440.14,85.15 L 441.13,85.20 L 441.51,85.22 L 442.19,85.27 L 442.41,85.30 L 442.76,85.35 L 442.81,85.38 L 442.92,85.66 L 442.99,86.05 L 443.02,86.34 L 443.16,87.78 L 443.22,88.88 L 443.34,91.33 L 443.40,92.91 L 443.50,96.29 L 443.55,98.32 L 443.65,102.58 L 443.69,105.01 L 443.76,110.08 L 443.80,112.89 L 443.86,118.70 L 443.88,121.86 L 443.92,128.35 L 443.93,131.82 L 443.96,138.98 L 443.97,143.37 L 443.97,145.38 L 443.98,149.27 L 443.98,151.05 L 443.97,154.48 L 443.97,156.04 L 443.96,159.04 L 443.95,160.39 L 443.93,163.00 L 443.92,164.16 L 443.89,166.39 L 443.87,167.37 L 443.83,169.26 L 443.81,170.09 L 443.76,171.66 L 443.73,172.34 L 443.66,173.63 L 443.62,174.18 L 443.46,176.13 L 443.36,176.79 L 443.14,177.92 L 443.01,178.26 L 442.72,178.82 L 442.55,178.96 L 441.71,179.54 L 441.23,179.74 L 441.00,179.74 L 440.55,179.68 L 440.30,179.55 L 439.78,179.23 L 439.47,178.98 L 437.73,178.21 L 437.09,178.25 L 436.71,178.36 L 435.91,178.63 L 435.42,178.85 L 433.97,179.43 L 433.29,179.59 L 432.03,179.83 L 431.70,179.76 L 431.37,179.74 L 430.95,179.72 L 430.65,179.71 L 429.17,179.67 L 428.08,179.65 L 425.69,179.60 L 424.18,179.58 L 420.98,179.54 L 419.11,179.51 L 415.22,179.47 L 413.05,179.44 L 408.57,179.40 L 406.15,179.38 L 401.20,179.33 L 398.59,179.31 L 393.29,179.27 L 390.54,179.25 L 382.49,179.18 L 377.37,179.12 L 374.96,179.08 L 370.26,179.00 L 368.10,178.96 L 363.93,178.87 L 362.08,178.82 L 358.56,178.73 L 357.08,178.67 L 354.31,178.57 L 353.25,178.51 L 351.35,178.40 L 350.76,178.35 L 350.24,178.29 L 350.07,178.27 L 349.81,178.21 L 349.78,178.18 L 349.70,177.86 L 349.64,177.43 L 349.61,177.11 L 349.51,175.54 L 349.46,174.39 L 349.36,171.84 L 349.32,170.26 L 349.24,166.89 L 349.21,164.95 L 349.14,160.91 L 349.11,158.69 L 349.06,154.12 L 349.03,151.70 L 348.96,141.68 L 348.95,136.49 L 348.93,126.07 L 348.95,121.14 L 348.97,116.27 L 348.99,113.99 L 349.02,109.52 L 349.05,107.49 L 349.10,103.58 L 349.13,101.88 L 349.20,98.68 L 349.24,97.39 L 349.33,95.04 L 349.38,94.24 L 349.43,93.51 L 349.46,93.24 L 349.52,92.79 L 349.55,92.67 L 349.70,90.29 L 349.34,88.91 L 348.95,88.44 L 348.28,87.09 L 348.32,86.28 L 348.60,86.00 L 348.95,85.91 L 349.44,85.85 L 349.80,85.82 L 350.60,85.76 L 351.12,85.74 L 352.21,85.68 L 352.86,85.65 L 355.73,85.55 L 357.52,85.50 L 361.32,85.40 L 363.51,85.35 L 368.07,85.26 L 370.57,85.22 L 375.70,85.15 L 378.43,85.11 L 389.68,84.99 L 395.48,84.96 L 407.11,84.90 L 412.57,84.89 L 417.95,84.89 M 264.02,84.90 L 275.05,84.91 L 280.23,84.94 L 285.33,84.97 L 287.72,84.99 L 292.37,85.03 L 294.47,85.06 L 298.51,85.11 L 300.24,85.14 L 303.50,85.21 L 304.77,85.25 L 305.99,85.29 L 306.50,85.31 L 307.46,85.35 L 307.83,85.37 L 308.51,85.41 L 308.73,85.44 L 309.10,85.49 L 309.17,85.51 L 309.99,86.19 L 310.44,87.04 L 310.63,87.74 L 310.99,89.35 L 311.13,90.52 L 311.26,91.75 L 311.32,92.48 L 311.44,93.99 L 311.49,94.86 L 311.58,96.69 L 311.62,97.73 L 311.70,99.89 L 311.73,101.11 L 311.80,103.64 L 311.82,105.06 L 311.87,107.98 L 311.89,109.61 L 311.92,112.96 L 311.94,114.80 L 311.96,118.61 L 311.97,120.69 L 311.98,124.98 L 311.98,127.31 L 311.99,132.10 L 311.99,134.70 L 311.99,141.77 L 311.98,146.07 L 311.98,148.02 L 311.96,151.80 L 311.94,153.50 L 311.91,156.78 L 311.89,158.25 L 311.84,161.09 L 311.81,162.34 L 311.74,164.76 L 311.70,165.82 L 311.61,167.85 L 311.55,168.74 L 311.43,170.42 L 311.36,171.14 L 311.20,172.51 L 311.11,173.09 L 310.93,174.18 L 310.82,174.64 L 310.35,176.22 L 310.05,176.73 L 309.40,177.59 L 309.00,177.85 L 308.14,178.26 L 307.63,178.40 L 307.40,178.44 L 307.17,178.46 L 306.64,178.50 L 306.27,178.52 L 304.51,178.58 L 303.26,178.61 L 300.52,178.67 L 298.84,178.69 L 295.28,178.74 L 293.24,178.76 L 289.01,178.79 L 286.70,178.81 L 281.95,178.83 L 279.45,178.84 L 269.10,178.86 L 263.77,178.86 L 253.11,178.84 L 248.09,178.82 L 243.15,178.79 L 240.84,178.77 L 236.33,178.74 L 234.29,178.72 L 230.37,178.67 L 228.69,178.64 L 225.52,178.59 L 224.26,178.56 L 221.99,178.49 L 221.25,178.45 L 220.58,178.42 L 220.35,178.40 L 219.97,178.36 L 219.89,178.34 L 218.70,177.79 L 218.05,177.16 L 217.78,176.62 L 217.29,175.38 L 217.10,174.45 L 216.91,173.47 L 216.83,172.88 L 216.68,171.64 L 216.61,170.91 L 216.49,169.39 L 216.43,168.51 L 216.33,166.68 L 216.29,165.63 L 216.22,163.45 L 216.19,162.22 L 216.13,159.66 L 216.11,158.23 L 216.07,155.27 L 216.05,153.62 L 216.03,150.22 L 216.02,148.35 L 216.01,144.48 L 216.00,142.35 L 216.00,137.98 L 216.00,135.60 L 216.01,128.20 L 216.02,123.65 L 216.02,121.56 L 216.04,117.49 L 216.06,115.63 L 216.09,112.02 L 216.11,110.37 L 216.15,107.19 L 216.18,105.75 L 216.23,102.98 L 216.27,101.73 L 216.34,99.33 L 216.38,98.27 L 216.47,96.22 L 216.53,95.32 L 216.63,93.59 L 216.70,92.84 L 216.82,91.41 L 216.90,90.80 L 217.21,88.62 L 217.40,87.87 L 217.81,86.59 L 218.06,86.21 L 218.58,85.60 L 218.89,85.49 L 219.32,85.41 L 219.85,85.37 L 220.22,85.35 L 221.04,85.30 L 221.55,85.28 L 222.63,85.24 L 223.27,85.22 L 226.08,85.15 L 227.81,85.12 L 231.47,85.06 L 233.57,85.04 L 237.94,84.99 L 240.32,84.98 L 245.22,84.94 L 247.81,84.93 L 258.51,84.90 Z"
              fill="rgb(247,198,142)"/>
        <path d="M 132.25,215.24 L 181.50,215.50 L 181.50,266.81 L 181.50,271.27 L 181.49,273.45 L 181.49,277.50 L 181.48,279.48 L 181.47,283.14 L 181.46,284.93 L 181.44,288.21 L 181.43,289.81 L 181.41,292.74 L 181.39,294.16 L 181.36,296.75 L 181.35,298.00 L 181.31,300.26 L 181.29,301.35 L 181.24,303.30 L 181.22,304.24 L 181.16,305.90 L 181.14,306.70 L 181.07,308.08 L 181.01,309.40 L 180.86,311.28 L 180.78,312.11 L 180.58,313.11 L 180.25,313.75 L 179.91,313.86 L 179.35,313.65 L 179.12,313.49 L 178.95,312.83 L 178.95,312.79 L 178.95,312.47 L 178.95,312.27 L 178.94,311.66 L 178.94,311.33 L 178.94,310.44 L 178.94,309.97 L 178.94,308.83 L 178.94,307.63 L 178.94,304.52 L 178.94,302.86 L 178.95,298.92 L 178.95,296.86 L 178.95,292.22 L 178.96,289.82 L 178.96,284.60 L 178.97,281.93 L 178.98,276.25 L 179.00,267.36 L 179.00,264.32 L 179.00,258.44 L 179.00,255.54 L 178.98,250.02 L 178.97,247.32 L 178.94,242.29 L 178.92,239.85 L 178.88,235.44 L 178.85,233.33 L 178.80,229.67 L 178.77,227.94 L 178.70,225.15 L 178.66,223.88 L 178.58,222.10 L 178.56,221.72 L 178.52,221.18 L 178.46,220.69 L 178.31,220.11 L 177.90,219.14 L 177.64,218.69 L 176.76,217.96 L 176.23,217.62 L 174.54,217.11 L 174.05,216.99 L 172.87,216.79 L 172.24,216.70 L 170.74,216.54 L 169.94,216.47 L 168.09,216.35 L 167.11,216.30 L 164.85,216.21 L 163.67,216.18 L 160.97,216.12 L 159.56,216.10 L 156.38,216.07 L 154.72,216.06 L 151.01,216.06 L 149.09,216.06 L 144.81,216.07 L 142.60,216.08 L 137.72,216.11 L 129.66,216.17 L 127.58,216.19 L 123.69,216.22 L 121.80,216.24 L 118.27,216.27 L 116.54,216.29 L 113.35,216.33 L 111.79,216.35 L 108.92,216.39 L 107.52,216.41 L 104.95,216.46 L 103.71,216.48 L 101.43,216.53 L 100.33,216.56 L 98.33,216.61 L 97.37,216.64 L 95.64,216.70 L 93.97,216.76 L 91.35,216.91 L 90.16,216.98 L 88.40,217.15 L 87.62,217.24 L 86.61,217.45 L 85.80,217.80 L 85.67,217.93 L 85.45,218.65 L 85.34,219.09 L 85.16,220.55 L 85.07,221.38 L 84.92,223.71 L 84.89,224.35 L 84.82,225.83 L 84.79,226.60 L 84.74,228.34 L 84.71,229.24 L 84.66,231.27 L 84.64,232.32 L 84.60,234.64 L 84.58,235.84 L 84.54,238.48 L 84.52,239.84 L 84.49,242.81 L 84.48,244.34 L 84.45,247.67 L 84.44,249.37 L 84.42,253.06 L 84.41,254.96 L 84.39,259.04 L 84.37,265.60 L 84.36,268.80 L 84.33,274.96 L 84.31,277.98 L 84.26,283.71 L 84.24,286.50 L 84.19,291.66 L 84.16,294.16 L 84.09,298.62 L 84.06,300.76 L 83.98,304.40 L 83.94,306.11 L 83.87,308.81 L 83.85,309.42 L 83.80,310.44 L 83.78,310.91 L 83.74,311.64 L 83.72,311.98 L 83.68,312.41 L 83.62,312.72 L 83.59,312.74 L 83.55,312.53 L 83.53,312.38 L 83.49,311.84 L 83.47,311.53 L 83.43,310.68 L 83.41,310.22 L 83.38,309.08 L 83.36,308.47 L 83.32,307.05 L 83.31,306.31 L 83.27,304.63 L 83.24,302.89 L 83.18,298.71 L 83.15,296.51 L 83.11,291.50 L 83.08,288.90 L 83.05,283.20 L 83.03,280.28 L 83.01,274.02 L 83.00,264.16 L 83.00,214.98 M 264.25,83.24 L 313.50,83.50 L 313.76,131.39 L 313.77,133.54 L 313.79,137.62 L 313.80,139.62 L 313.81,143.37 L 313.81,145.22 L 313.82,148.67 L 313.82,150.36 L 313.82,153.51 L 313.81,155.05 L 313.80,157.91 L 313.80,159.30 L 313.78,161.88 L 313.77,163.14 L 313.75,165.44 L 313.73,166.56 L 313.70,168.59 L 313.67,170.56 L 313.57,173.72 L 313.52,175.18 L 313.39,177.38 L 313.33,178.36 L 313.17,179.65 L 312.89,180.64 L 312.77,180.78 L 312.13,181.02 L 311.72,181.13 L 310.36,181.32 L 309.58,181.41 L 307.33,181.56 L 306.70,181.59 L 305.26,181.65 L 304.50,181.68 L 302.77,181.74 L 301.87,181.76 L 299.84,181.81 L 298.78,181.83 L 296.43,181.86 L 295.21,181.88 L 292.50,181.91 L 291.11,181.92 L 288.03,181.94 L 286.45,181.95 L 282.98,181.97 L 281.20,181.98 L 277.33,181.99 L 275.33,181.99 L 271.02,182.00 L 264.04,182.00 L 260.76,182.00 L 254.45,181.99 L 251.34,181.98 L 245.47,181.95 L 242.60,181.93 L 237.30,181.89 L 234.74,181.86 L 230.15,181.80 L 227.96,181.77 L 224.22,181.71 L 222.46,181.67 L 219.69,181.59 L 219.06,181.57 L 218.02,181.53 L 217.53,181.51 L 216.77,181.47 L 216.43,181.45 L 215.98,181.40 L 215.80,181.38 L 215.67,181.33 L 215.64,181.31 L 215.60,181.01 L 215.58,180.82 L 215.53,180.20 L 215.51,179.85 L 215.47,178.93 L 215.45,178.43 L 215.41,177.22 L 215.37,175.94 L 215.29,172.59 L 215.26,170.79 L 215.20,166.51 L 215.17,164.27 L 215.11,159.20 L 215.09,156.57 L 215.05,150.84 L 215.04,147.91 L 215.01,141.65 L 215.00,131.82 L 215.00,82.98 M 445.50,181.50 L 396.93,181.76 L 393.59,181.78 L 387.15,181.80 L 383.99,181.81 L 378.01,181.81 L 375.09,181.81 L 369.70,181.79 L 367.09,181.78 L 362.42,181.74 L 360.19,181.73 L 356.38,181.68 L 354.59,181.65 L 351.77,181.58 L 351.13,181.57 L 350.07,181.53 L 349.57,181.51 L 348.80,181.47 L 348.46,181.45 L 348.00,181.41 L 347.81,181.39 L 347.68,181.34 L 347.65,181.32 L 347.61,181.02 L 347.58,180.83 L 347.54,180.21 L 347.52,179.86 L 347.48,178.94 L 347.45,178.44 L 347.41,177.23 L 347.37,175.95 L 347.30,172.60 L 347.26,170.80 L 347.20,166.52 L 347.17,164.28 L 347.12,159.20 L 347.09,156.58 L 347.05,150.85 L 347.04,147.91 L 347.01,141.66 L 347.00,131.83 L 347.00,83.00 L 446.02,83.00 M 412.57,84.89 L 407.11,84.90 L 395.48,84.96 L 389.68,84.99 L 378.43,85.11 L 375.70,85.15 L 370.57,85.22 L 368.07,85.26 L 363.51,85.35 L 361.32,85.40 L 357.52,85.50 L 355.73,85.55 L 352.86,85.65 L 352.21,85.68 L 351.12,85.74 L 350.60,85.76 L 349.80,85.82 L 349.44,85.85 L 348.95,85.91 L 348.60,86.00 L 348.32,86.28 L 348.28,87.09 L 348.95,88.44 L 349.34,88.91 L 349.70,90.29 L 349.55,92.67 L 349.52,92.79 L 349.46,93.24 L 349.43,93.51 L 349.38,94.24 L 349.33,95.04 L 349.24,97.39 L 349.20,98.68 L 349.13,101.88 L 349.10,103.58 L 349.05,107.49 L 349.02,109.52 L 348.99,113.99 L 348.97,116.27 L 348.95,121.14 L 348.93,126.07 L 348.95,136.49 L 348.96,141.68 L 349.03,151.70 L 349.06,154.12 L 349.11,158.69 L 349.14,160.91 L 349.21,164.95 L 349.24,166.89 L 349.32,170.26 L 349.36,171.84 L 349.46,174.39 L 349.51,175.54 L 349.61,177.11 L 349.64,177.43 L 349.70,177.86 L 349.78,178.18 L 349.81,178.21 L 350.07,178.27 L 350.24,178.29 L 350.76,178.35 L 351.35,178.40 L 353.25,178.51 L 354.31,178.57 L 357.08,178.67 L 358.56,178.73 L 362.08,178.82 L 363.93,178.87 L 368.10,178.96 L 370.26,179.00 L 374.96,179.08 L 377.37,179.12 L 382.49,179.18 L 390.54,179.25 L 393.29,179.27 L 398.59,179.31 L 401.20,179.33 L 406.15,179.38 L 408.57,179.40 L 413.05,179.44 L 415.22,179.47 L 419.11,179.51 L 420.98,179.54 L 424.18,179.58 L 425.69,179.60 L 428.08,179.65 L 429.17,179.67 L 430.65,179.71 L 430.95,179.72 L 431.37,179.74 L 431.70,179.76 L 432.03,179.83 L 433.29,179.59 L 433.97,179.43 L 435.42,178.85 L 435.91,178.63 L 436.71,178.36 L 437.09,178.25 L 437.73,178.21 L 439.47,178.98 L 439.78,179.23 L 440.30,179.55 L 440.55,179.68 L 441.00,179.74 L 441.23,179.74 L 441.71,179.54 L 442.55,178.96 L 442.72,178.82 L 443.01,178.26 L 443.14,177.92 L 443.36,176.79 L 443.46,176.13 L 443.62,174.18 L 443.66,173.63 L 443.73,172.34 L 443.76,171.66 L 443.81,170.09 L 443.83,169.26 L 443.87,167.37 L 443.89,166.39 L 443.92,164.16 L 443.93,163.00 L 443.95,160.39 L 443.96,159.04 L 443.97,156.04 L 443.97,154.48 L 443.98,151.05 L 443.98,149.27 L 443.97,145.38 L 443.97,143.37 L 443.96,138.98 L 443.93,131.82 L 443.92,128.35 L 443.88,121.86 L 443.86,118.70 L 443.80,112.89 L 443.76,110.08 L 443.69,105.01 L 443.65,102.58 L 443.55,98.32 L 443.50,96.29 L 443.40,92.91 L 443.34,91.33 L 443.22,88.88 L 443.16,87.78 L 443.02,86.34 L 442.99,86.05 L 442.92,85.66 L 442.81,85.38 L 442.76,85.35 L 442.41,85.30 L 442.19,85.27 L 441.51,85.22 L 441.13,85.20 L 440.14,85.15 L 439.62,85.13 L 438.35,85.09 L 437.02,85.05 L 433.62,84.99 L 431.81,84.97 L 427.57,84.93 L 425.36,84.91 L 420.46,84.90 L 417.95,84.89 M 247.81,84.93 L 245.22,84.94 L 240.32,84.98 L 237.94,84.99 L 233.57,85.04 L 231.47,85.06 L 227.81,85.12 L 226.08,85.15 L 223.27,85.22 L 222.63,85.24 L 221.55,85.28 L 221.04,85.30 L 220.22,85.35 L 219.85,85.37 L 219.32,85.41 L 218.89,85.49 L 218.58,85.60 L 218.06,86.21 L 217.81,86.59 L 217.40,87.87 L 217.21,88.62 L 216.90,90.80 L 216.82,91.41 L 216.70,92.84 L 216.63,93.59 L 216.53,95.32 L 216.47,96.22 L 216.38,98.27 L 216.34,99.33 L 216.27,101.73 L 216.23,102.98 L 216.18,105.75 L 216.15,107.19 L 216.11,110.37 L 216.09,112.02 L 216.06,115.63 L 216.04,117.49 L 216.02,121.56 L 216.02,123.65 L 216.01,128.20 L 216.00,135.60 L 216.00,137.98 L 216.00,142.35 L 216.01,144.48 L 216.02,148.35 L 216.03,150.22 L 216.05,153.62 L 216.07,155.27 L 216.11,158.23 L 216.13,159.66 L 216.19,162.22 L 216.22,163.45 L 216.29,165.63 L 216.33,166.68 L 216.43,168.51 L 216.49,169.39 L 216.61,170.91 L 216.68,171.64 L 216.83,172.88 L 216.91,173.47 L 217.10,174.45 L 217.29,175.38 L 217.78,176.62 L 218.05,177.16 L 218.70,177.79 L 219.89,178.34 L 219.97,178.36 L 220.35,178.40 L 220.58,178.42 L 221.25,178.45 L 221.99,178.49 L 224.26,178.56 L 225.52,178.59 L 228.69,178.64 L 230.37,178.67 L 234.29,178.72 L 236.33,178.74 L 240.84,178.77 L 243.15,178.79 L 248.09,178.82 L 253.11,178.84 L 263.77,178.86 L 269.10,178.86 L 279.45,178.84 L 281.95,178.83 L 286.70,178.81 L 289.01,178.79 L 293.24,178.76 L 295.28,178.74 L 298.84,178.69 L 300.52,178.67 L 303.26,178.61 L 304.51,178.58 L 306.27,178.52 L 306.64,178.50 L 307.17,178.46 L 307.40,178.44 L 307.63,178.40 L 308.14,178.26 L 309.00,177.85 L 309.40,177.59 L 310.05,176.73 L 310.35,176.22 L 310.82,174.64 L 310.93,174.18 L 311.11,173.09 L 311.20,172.51 L 311.36,171.14 L 311.43,170.42 L 311.55,168.74 L 311.61,167.85 L 311.70,165.82 L 311.74,164.76 L 311.81,162.34 L 311.84,161.09 L 311.89,158.25 L 311.91,156.78 L 311.94,153.50 L 311.96,151.80 L 311.98,148.02 L 311.98,146.07 L 311.99,141.77 L 311.99,134.70 L 311.99,132.10 L 311.98,127.31 L 311.98,124.98 L 311.97,120.69 L 311.96,118.61 L 311.94,114.80 L 311.92,112.96 L 311.89,109.61 L 311.87,107.98 L 311.82,105.06 L 311.80,103.64 L 311.73,101.11 L 311.70,99.89 L 311.62,97.73 L 311.58,96.69 L 311.49,94.86 L 311.44,93.99 L 311.32,92.48 L 311.26,91.75 L 311.13,90.52 L 310.99,89.35 L 310.63,87.74 L 310.44,87.04 L 309.99,86.19 L 309.17,85.51 L 309.10,85.49 L 308.73,85.44 L 308.51,85.41 L 307.83,85.37 L 307.46,85.35 L 306.50,85.31 L 305.99,85.29 L 304.77,85.25 L 303.50,85.21 L 300.24,85.14 L 298.51,85.11 L 294.47,85.06 L 292.37,85.03 L 287.72,84.99 L 285.33,84.97 L 280.23,84.94 L 275.05,84.91 L 264.02,84.90 L 258.51,84.90 Z"
              fill="rgb(248,195,132)"/>
        <path d="M 528.00,528.00 L 0.0000,528.00 L 0.00,0.00 L 528.00,0.00 M 465.93,213.87 L 465.39,213.94 L 464.24,214.08 L 463.50,214.15 L 461.90,214.27 L 460.90,214.32 L 458.76,214.43 L 457.44,214.47 L 454.64,214.56 L 452.96,214.60 L 449.39,214.67 L 447.29,214.70 L 442.85,214.75 L 440.27,214.78 L 437.62,214.80 L 436.20,214.81 L 433.29,214.83 L 431.74,214.84 L 428.55,214.86 L 426.86,214.87 L 423.38,214.88 L 421.53,214.89 L 417.76,214.90 L 415.76,214.91 L 411.66,214.92 L 409.50,214.92 L 405.08,214.93 L 402.74,214.94 L 397.98,214.95 L 395.46,214.95 L 390.34,214.95 L 387.64,214.96 L 382.15,214.96 L 379.27,214.96 L 373.39,214.97 L 370.31,214.97 L 364.04,214.97 L 360.75,214.97 L 354.07,214.98 L 350.57,214.98 L 343.47,214.98 L 339.75,214.98 L 215.00,215.00 L 215.00,218.58 L 214.98,215.00 L 339.74,214.98 L 343.46,214.98 L 350.56,214.98 L 354.06,214.98 L 360.74,214.97 L 364.03,214.97 L 370.30,214.97 L 373.39,214.97 L 379.26,214.96 L 382.15,214.96 L 387.64,214.96 L 390.34,214.95 L 395.46,214.95 L 397.97,214.95 L 402.73,214.94 L 405.07,214.93 L 409.49,214.92 L 411.66,214.92 L 415.75,214.91 L 417.76,214.90 L 421.53,214.89 L 423.38,214.88 L 426.85,214.87 L 428.55,214.86 L 431.74,214.84 L 433.29,214.83 L 436.20,214.81 L 437.62,214.80 L 440.27,214.78 L 442.85,214.75 L 447.29,214.70 L 449.39,214.67 L 452.96,214.60 L 454.64,214.56 L 457.44,214.47 L 458.75,214.43 L 460.90,214.32 L 461.90,214.27 L 463.50,214.15 L 464.24,214.08 L 465.39,213.94 L 465.93,213.87 L 466.75,213.70 L 468.50,213.12 L 466.75,213.70 M 181.50,445.50 L 132.93,445.76 L 129.59,445.78 L 123.15,445.80 L 119.99,445.81 L 114.01,445.81 L 111.09,445.81 L 105.70,445.79 L 103.09,445.78 L 98.42,445.74 L 96.19,445.73 L 92.38,445.68 L 90.59,445.65 L 87.77,445.58 L 87.13,445.57 L 86.07,445.53 L 85.57,445.51 L 84.80,445.47 L 84.46,445.45 L 84.00,445.41 L 83.81,445.39 L 83.68,445.34 L 83.65,445.32 L 83.61,445.02 L 83.58,444.83 L 83.54,444.21 L 83.52,443.86 L 83.48,442.94 L 83.45,442.44 L 83.41,441.23 L 83.37,439.95 L 83.30,436.60 L 83.26,434.80 L 83.20,430.52 L 83.17,428.28 L 83.12,423.20 L 83.09,420.58 L 83.05,414.85 L 83.04,411.91 L 83.01,405.66 L 83.00,395.83 L 83.00,347.00 L 182.02,347.00 M 445.50,445.50 L 396.93,445.76 L 393.59,445.78 L 387.15,445.80 L 383.99,445.81 L 378.01,445.81 L 375.09,445.81 L 369.70,445.79 L 367.09,445.78 L 362.42,445.74 L 360.19,445.73 L 356.38,445.68 L 354.59,445.65 L 351.77,445.58 L 351.13,445.57 L 350.07,445.53 L 349.57,445.51 L 348.80,445.47 L 348.46,445.45 L 348.00,445.41 L 347.81,445.39 L 347.68,445.34 L 347.65,445.32 L 347.61,445.02 L 347.58,444.83 L 347.54,444.21 L 347.52,443.86 L 347.48,442.94 L 347.45,442.44 L 347.41,441.23 L 347.37,439.95 L 347.30,436.60 L 347.26,434.80 L 347.20,430.52 L 347.17,428.28 L 347.12,423.20 L 347.09,420.58 L 347.05,414.85 L 347.04,411.91 L 347.01,405.66 L 347.00,395.83 L 347.00,347.00 L 446.02,347.00 M 215.62,311.12 L 215.73,311.77 L 215.95,312.85 L 216.09,313.15 L 216.32,313.50 L 215.50,313.50 L 215.48,309.39 M 106.42,85.68 L 108.81,85.68 L 113.75,85.70 L 116.42,85.71 L 121.88,85.74 L 124.77,85.75 L 130.62,85.79 L 133.66,85.81 L 177.82,86.15 L 178.33,88.32 L 178.40,88.90 L 178.45,89.51 L 178.47,89.92 L 178.55,91.84 L 178.58,93.18 L 178.64,96.09 L 178.66,97.85 L 178.70,101.59 L 178.71,103.70 L 178.73,108.10 L 178.73,110.49 L 178.74,115.39 L 178.73,117.97 L 178.69,128.59 L 178.65,134.04 L 178.56,144.90 L 178.49,149.97 L 178.42,154.96 L 178.39,157.29 L 178.31,161.81 L 178.27,163.85 L 178.18,167.74 L 178.13,169.40 L 178.04,172.52 L 177.98,173.72 L 177.93,174.86 L 177.91,175.34 L 177.86,176.22 L 177.83,176.56 L 177.78,177.15 L 177.75,177.34 L 177.69,177.64 L 177.67,177.67 L 177.52,177.73 L 177.32,177.76 L 176.85,177.82 L 176.50,177.84 L 175.73,177.90 L 175.24,177.93 L 174.18,177.98 L 173.56,178.01 L 170.80,178.11 L 169.08,178.16 L 165.43,178.25 L 163.33,178.29 L 158.95,178.37 L 156.55,178.40 L 151.63,178.47 L 149.01,178.50 L 138.21,178.59 L 132.64,178.62 L 121.48,178.66 L 116.23,178.65 L 111.07,178.64 L 108.65,178.63 L 103.95,178.60 L 101.83,178.58 L 97.76,178.54 L 96.02,178.51 L 92.74,178.44 L 91.46,178.40 L 90.25,178.36 L 89.74,178.34 L 88.79,178.29 L 88.43,178.27 L 87.77,178.22 L 87.56,178.19 L 87.21,178.13 L 87.16,178.10 L 87.05,177.78 L 86.98,177.34 L 86.94,177.00 L 86.88,176.25 L 86.84,175.77 L 86.77,174.74 L 86.74,174.13 L 86.62,171.44 L 86.56,169.75 L 86.44,166.17 L 86.39,164.11 L 86.29,159.81 L 86.24,157.44 L 86.16,152.59 L 86.12,150.01 L 85.99,139.34 L 85.95,133.82 L 85.88,122.75 L 85.88,117.52 L 85.89,112.37 L 85.90,109.95 L 85.92,105.24 L 85.95,103.10 L 85.99,98.99 L 86.03,97.22 L 86.10,93.87 L 86.15,92.54 L 86.20,91.28 L 86.22,90.74 L 86.28,89.73 L 86.31,89.33 L 86.37,88.60 L 86.40,88.35 L 86.47,87.92 L 86.51,87.83 L 87.31,86.55 L 88.00,85.91 L 88.33,85.82 L 88.68,85.78 L 89.13,85.76 L 89.46,85.76 L 90.20,85.74 L 90.67,85.73 L 91.67,85.72 L 92.27,85.71 L 94.90,85.69 L 96.55,85.69 L 100.07,85.68 L 102.13,85.68 M 92.28,90.16 L 91.38,90.40 L 91.00,90.75 L 90.31,91.61 L 90.19,92.26 L 90.15,93.30 L 90.43,93.58 L 91.21,94.00 L 91.93,94.00 L 93.50,93.50 L 94.00,92.64 L 94.00,91.93 L 93.47,90.53 L 92.73,90.12 M 52.27,470.42 L 52.96,471.65 L 55.08,473.92 L 58.91,476.67 L 63.31,479.00 L 269.39,479.00 L 279.41,479.00 L 284.36,479.00 L 293.88,479.00 L 298.58,479.00 L 307.62,478.99 L 312.08,478.99 L 320.64,478.99 L 324.86,478.99 L 332.96,478.98 L 336.96,478.98 L 344.61,478.97 L 348.38,478.97 L 355.59,478.96 L 359.14,478.96 L 365.93,478.95 L 369.27,478.94 L 375.64,478.93 L 378.77,478.92 L 384.75,478.91 L 387.68,478.91 L 393.26,478.89 L 396.01,478.88 L 401.21,478.87 L 403.77,478.86 L 408.61,478.84 L 410.98,478.83 L 415.47,478.81 L 417.67,478.80 L 421.81,478.78 L 423.84,478.77 L 427.66,478.74 L 429.53,478.73 L 433.02,478.71 L 434.74,478.69 L 437.93,478.66 L 439.49,478.65 L 442.39,478.62 L 443.81,478.60 L 446.43,478.57 L 448.98,478.53 L 453.30,478.46 L 455.33,478.42 L 458.68,478.33 L 460.25,478.29 L 462.73,478.19 L 463.87,478.14 L 465.59,478.03 L 466.35,477.97 L 467.39,477.85 L 467.84,477.79 L 468.30,477.65 L 469.52,477.14 L 471.84,475.49 L 472.97,474.58 L 474.95,472.34 L 475.87,471.18 L 477.27,468.64 L 478.48,464.79 L 478.51,464.64 L 478.55,464.00 L 478.56,463.62 L 478.60,462.54 L 478.62,461.94 L 478.65,460.44 L 478.67,459.64 L 478.70,457.75 L 478.71,456.75 L 478.74,454.49 L 478.75,453.32 L 478.78,450.71 L 478.79,449.37 L 478.81,446.45 L 478.82,444.95 L 478.83,441.73 L 478.85,438.45 L 478.86,431.11 L 478.87,427.33 L 478.87,419.13 L 478.87,414.95 L 478.85,406.11 L 478.80,392.32 L 478.78,388.13 L 478.75,380.50 L 478.73,376.81 L 478.70,370.13 L 478.68,366.90 L 478.65,361.11 L 478.63,358.31 L 478.59,353.33 L 478.57,350.93 L 478.53,346.70 L 478.51,344.67 L 478.46,341.12 L 478.43,339.43 L 478.37,336.50 L 478.34,335.10 L 478.27,332.72 L 478.23,331.60 L 478.15,329.71 L 478.10,328.81 L 478.00,327.34 L 477.95,326.65 L 477.83,325.53 L 477.76,325.01 L 477.62,324.18 L 477.47,323.41 L 477.11,322.46 L 476.44,321.38 L 475.87,320.63 L 474.17,318.83 L 471.62,316.56 L 471.27,316.31 L 470.43,315.88 L 470.17,315.78 L 469.45,315.61 L 469.04,315.52 L 467.95,315.37 L 467.34,315.29 L 465.75,315.16 L 464.89,315.10 L 462.67,314.98 L 461.48,314.93 L 458.52,314.83 L 456.94,314.78 L 453.11,314.70 L 451.08,314.66 L 446.26,314.59 L 444.99,314.57 L 442.23,314.54 L 440.82,314.52 L 437.78,314.49 L 436.22,314.47 L 432.86,314.44 L 431.15,314.43 L 427.47,314.40 L 425.60,314.39 L 421.58,314.36 L 419.53,314.35 L 415.17,314.32 L 412.94,314.31 L 408.21,314.28 L 405.79,314.27 L 400.67,314.25 L 398.06,314.23 L 392.55,314.21 L 389.73,314.19 L 383.80,314.17 L 380.78,314.16 L 374.41,314.13 L 371.18,314.12 L 364.36,314.09 L 360.90,314.07 L 353.63,314.05 L 342.18,314.00 L 218.58,313.51 L 218.60,313.47 L 218.66,312.72 L 218.51,312.12 L 218.09,310.77 L 217.71,309.85 L 216.90,306.86 L 216.86,305.10 L 217.10,304.49 L 217.18,304.07 L 217.23,303.58 L 217.26,303.24 L 217.36,301.60 L 217.41,300.42 L 217.50,297.82 L 217.54,296.21 L 217.62,292.78 L 217.65,290.80 L 217.72,286.65 L 217.75,284.35 L 217.80,279.62 L 217.82,277.06 L 217.85,271.85 L 217.86,269.11 L 217.87,263.54 L 217.87,260.66 L 217.87,252.25 L 217.88,246.89 L 217.89,244.38 L 217.92,239.48 L 217.93,237.24 L 217.96,232.90 L 217.98,230.98 L 218.02,227.33 L 218.04,225.80 L 218.09,222.94 L 218.12,221.85 L 218.17,219.91 L 218.20,219.32 L 218.23,218.80 L 218.24,218.64 L 218.27,218.40 L 218.29,218.38 L 218.96,218.34 L 220.02,218.31 L 220.84,218.29 L 222.68,218.26 L 223.88,218.25 L 226.45,218.22 L 228.00,218.21 L 231.26,218.18 L 233.14,218.17 L 237.06,218.15 L 239.25,218.14 L 243.78,218.11 L 246.26,218.10 L 251.36,218.08 L 254.11,218.07 L 259.74,218.05 L 262.73,218.04 L 268.85,218.03 L 272.07,218.02 L 278.63,218.00 L 282.06,218.00 L 289.02,217.99 L 292.64,217.98 L 299.97,217.97 L 303.75,217.97 L 311.39,217.96 L 315.32,217.96 L 331.30,217.95 L 339.61,217.95 L 364.02,217.94 L 371.89,217.92 L 375.72,217.92 L 383.32,217.90 L 387.01,217.89 L 394.30,217.87 L 397.82,217.86 L 404.75,217.83 L 408.07,217.82 L 414.61,217.79 L 417.72,217.77 L 423.82,217.74 L 426.69,217.72 L 432.31,217.68 L 434.92,217.66 L 440.01,217.62 L 442.34,217.60 L 446.86,217.55 L 448.89,217.53 L 452.80,217.48 L 454.51,217.46 L 457.75,217.41 L 459.12,217.39 L 461.67,217.33 L 462.66,217.31 L 464.47,217.25 L 465.08,217.23 L 466.10,217.17 L 466.29,217.14 L 469.38,216.58 L 470.98,216.12 L 471.65,215.79 L 472.94,215.07 L 473.56,214.55 L 474.82,213.42 L 475.54,212.66 L 477.98,209.54 L 478.55,208.59 L 478.73,208.18 L 479.00,207.44 L 479.00,207.20 L 479.37,205.56 L 479.91,204.49 L 480.25,204.15 L 480.41,203.60 L 480.51,202.86 L 480.56,202.32 L 480.66,201.11 L 480.71,200.34 L 480.80,198.70 L 480.85,197.72 L 480.94,195.68 L 480.98,194.51 L 481.07,192.10 L 481.11,190.76 L 481.19,188.00 L 481.23,186.51 L 481.30,183.44 L 481.34,181.81 L 481.48,175.00 L 481.54,171.26 L 481.65,163.58 L 481.70,159.50 L 481.79,151.21 L 481.83,146.92 L 481.90,138.28 L 481.92,133.91 L 481.96,125.17 L 481.97,120.85 L 481.99,112.27 L 481.98,108.13 L 481.97,99.98 L 481.95,96.15 L 481.90,88.67 L 481.87,85.28 L 481.83,81.95 L 481.81,80.38 L 481.76,77.33 L 481.74,75.91 L 481.68,73.17 L 481.65,71.92 L 481.59,69.51 L 481.56,68.44 L 481.49,66.41 L 481.45,65.54 L 481.37,63.91 L 481.32,63.25 L 481.23,62.06 L 481.19,61.64 L 481.09,60.91 L 481.04,60.73 L 479.48,57.27 L 477.96,54.90 L 477.03,53.78 L 475.07,51.60 L 473.99,50.66 L 471.79,48.91 L 470.68,48.29 L 469.99,47.99 L 469.34,47.81 L 468.87,47.72 L 467.81,47.56 L 467.07,47.49 L 465.43,47.35 L 464.34,47.29 L 461.95,47.16 L 460.42,47.11 L 458.82,47.06 L 457.93,47.03 L 456.08,46.98 L 455.05,46.96 L 452.93,46.91 L 451.75,46.89 L 449.33,46.85 L 447.99,46.83 L 445.25,46.79 L 443.75,46.77 L 440.66,46.73 L 438.98,46.71 L 435.53,46.68 L 433.66,46.67 L 429.82,46.63 L 427.76,46.62 L 423.52,46.59 L 421.24,46.58 L 416.57,46.55 L 414.07,46.54 L 408.96,46.52 L 406.23,46.50 L 400.64,46.48 L 397.67,46.47 L 391.60,46.45 L 388.37,46.44 L 381.79,46.42 L 378.30,46.41 L 371.18,46.39 L 367.42,46.38 L 359.75,46.36 L 355.70,46.36 L 347.46,46.34 L 343.11,46.33 L 334.27,46.31 L 329.62,46.31 L 320.16,46.29 L 315.20,46.28 L 305.10,46.26 L 299.81,46.26 L 289.05,46.24 L 283.42,46.23 L 271.98,46.21 L 266.00,46.21 L 252.81,46.19 L 244.27,46.18 L 240.11,46.17 L 231.89,46.16 L 227.90,46.16 L 219.99,46.15 L 216.15,46.15 L 208.56,46.14 L 204.89,46.14 L 197.61,46.14 L 194.08,46.13 L 187.11,46.13 L 183.74,46.13 L 177.08,46.13 L 173.86,46.13 L 167.50,46.13 L 164.43,46.13 L 158.36,46.14 L 155.44,46.14 L 149.68,46.15 L 146.90,46.15 L 141.43,46.16 L 138.80,46.16 L 133.61,46.17 L 131.12,46.17 L 126.22,46.18 L 123.88,46.19 L 119.26,46.20 L 117.05,46.21 L 112.71,46.23 L 110.64,46.23 L 106.58,46.25 L 104.65,46.26 L 100.85,46.28 L 99.06,46.29 L 92.14,46.33 L 89.08,46.35 L 83.22,46.40 L 80.67,46.43 L 75.83,46.49 L 73.79,46.52 L 69.95,46.59 L 68.39,46.62 L 65.52,46.69 L 64.45,46.73 L 62.52,46.82 L 61.91,46.86 L 60.90,46.95 L 60.73,47.00 L 56.95,48.69 L 54.48,50.34 L 53.35,51.37 L 51.17,53.55 L 50.25,54.78 L 48.54,57.32 L 47.93,58.66 L 47.27,60.41 L 47.09,61.16 L 47.01,61.64 L 46.86,62.68 L 46.79,63.36 L 46.66,64.82 L 46.60,65.74 L 46.50,67.73 L 46.45,68.97 L 46.37,71.62 L 46.33,73.23 L 46.27,76.65 L 46.24,78.69 L 46.20,83.01 L 46.18,85.55 L 46.17,88.16 L 46.16,89.56 L 46.15,92.44 L 46.15,93.98 L 46.14,97.15 L 46.14,98.85 L 46.14,102.32 L 46.14,104.17 L 46.14,107.96 L 46.14,109.98 L 46.14,114.10 L 46.15,116.29 L 46.15,120.77 L 46.16,123.14 L 46.17,127.97 L 46.18,130.53 L 46.19,135.75 L 46.20,138.50 L 46.21,144.11 L 46.22,147.07 L 46.24,153.09 L 46.25,156.26 L 46.27,162.71 L 46.28,166.09 L 46.31,172.98 L 46.32,176.59 L 46.35,183.93 L 46.36,187.78 L 46.45,212.86 L 46.48,220.91 L 46.49,224.83 L 46.52,232.58 L 46.54,236.32 L 46.57,243.73 L 46.58,247.28 L 46.61,254.30 L 46.62,257.64 L 46.65,264.22 L 46.67,267.34 L 46.69,273.44 L 46.71,276.30 L 46.73,281.89 L 46.74,284.47 L 46.77,289.50 L 46.78,291.79 L 46.80,296.21 L 46.81,298.18 L 46.84,301.95 L 46.85,303.58 L 46.86,306.66 L 46.87,307.92 L 46.89,310.27 L 46.90,311.15 L 46.91,312.72 L 46.92,313.20 L 46.93,313.95 L 46.94,314.00 L 46.94,314.85 L 46.89,315.60 L 46.84,316.04 L 46.60,317.92 L 46.42,318.83 L 46.28,321.92 L 46.65,323.84 L 47.04,324.58 L 47.82,325.85 L 48.20,326.29 L 48.94,327.00 L 49.17,327.00 L 49.25,326.31 L 49.31,325.19 L 49.34,324.30 L 49.39,322.32 L 49.42,321.03 L 49.47,318.24 L 49.49,316.56 L 49.54,313.02 L 49.57,310.98 L 49.61,306.72 L 49.64,304.33 L 49.68,299.40 L 49.70,296.70 L 49.74,291.15 L 49.76,288.15 L 49.80,282.02 L 49.82,278.75 L 49.85,272.08 L 49.86,268.56 L 49.89,261.40 L 49.91,257.65 L 49.93,250.05 L 49.94,246.10 L 49.97,238.10 L 49.97,233.96 L 49.99,225.61 L 50.00,221.32 L 50.01,212.65 L 50.01,208.22 L 50.02,199.30 L 50.02,194.75 L 50.03,62.50 L 50.03,466.50 M 476.75,58.97 L 476.01,57.50 L 476.75,58.97 L 479.00,63.42 L 478.96,131.46 L 479.00,63.42 Z"
              fill="rgba(255,255,255,0)"/>
    </g>
</svg>
